subject11_noload_free_trial03_ground_reaction
version=1
nRows=67
nColumns=19
inDegrees=no
endheader
time	ground_force_r_vx	ground_force_r_vy	ground_force_r_vz	ground_force_r_px	ground_force_r_py	ground_force_r_pz	ground_torque_r_x	ground_torque_r_y	ground_torque_r_z	ground_force_l_vx	ground_force_l_vy	ground_force_l_vz	ground_force_l_px	ground_force_l_py	ground_force_l_pz	ground_torque_l_x	ground_torque_l_y	ground_torque_l_z
1.791500	-7.941789	616.434117	-25.700003	1.605679	0.000000	-0.177998	0.000000	-1.567594	0.000000	0.000000	0.000000	0.000000	2.221667	0.000000	-3.643319	0.000000	0.000000	0.000000
1.792000	-7.750980	616.602002	-25.744223	1.605857	0.000000	-0.177981	0.000000	-1.554785	0.000000	0.000000	0.000000	0.000000	2.233355	0.000000	-3.671850	0.000000	0.000000	0.000000
1.792500	-7.559818	616.777213	-25.789165	1.606035	0.000000	-0.177965	0.000000	-1.541866	0.000000	0.000000	0.000000	0.000000	2.245118	0.000000	-3.700542	0.000000	0.000000	0.000000
1.793000	-7.368277	616.959749	-25.834809	1.606212	0.000000	-0.177948	0.000000	-1.528836	0.000000	0.000000	0.000000	0.000000	2.256956	0.000000	-3.729397	0.000000	0.000000	0.000000
1.793500	-7.176331	617.149608	-25.881139	1.606389	0.000000	-0.177932	0.000000	-1.515694	0.000000	0.000000	0.000000	0.000000	2.268869	0.000000	-3.758415	0.000000	0.000000	0.000000
1.794000	-6.983952	617.346787	-25.928136	1.606565	0.000000	-0.177915	0.000000	-1.502437	0.000000	0.000000	0.000000	0.000000	2.280858	0.000000	-3.787596	0.000000	0.000000	0.000000
1.794500	-6.791113	617.551281	-25.975782	1.606741	0.000000	-0.177899	0.000000	-1.489063	0.000000	0.000000	0.000000	0.000000	2.292921	0.000000	-3.816942	0.000000	0.000000	0.000000
1.795000	-6.597787	617.763083	-26.024056	1.606917	0.000000	-0.177882	0.000000	-1.475569	0.000000	0.000000	0.000000	0.000000	2.305061	0.000000	-3.846451	0.000000	0.000000	0.000000
1.795500	-6.403945	617.982182	-26.072938	1.607092	0.000000	-0.177866	0.000000	-1.461952	0.000000	0.000000	0.000000	0.000000	2.317276	0.000000	-3.876126	0.000000	0.000000	0.000000
1.796000	-6.209557	618.208564	-26.122406	1.607266	0.000000	-0.177850	0.000000	-1.448209	0.000000	0.000000	0.000000	0.000000	2.329568	0.000000	-3.905966	0.000000	0.000000	0.000000
1.796500	-6.014594	618.442213	-26.172441	1.607441	0.000000	-0.177833	0.000000	-1.434337	0.000000	0.000000	0.000000	0.000000	2.341936	0.000000	-3.935971	0.000000	0.000000	0.000000
1.797000	-5.819029	618.683112	-26.223023	1.607615	0.000000	-0.177817	0.000000	-1.420334	0.000000	0.000000	0.000000	0.000000	2.354380	0.000000	-3.966143	0.000000	0.000000	0.000000
1.797500	-5.622832	618.931247	-26.274133	1.607788	0.000000	-0.177801	0.000000	-1.406198	0.000000	0.000000	0.000000	0.000000	2.366902	0.000000	-3.996481	0.000000	0.000000	0.000000
1.798000	-5.425977	619.186604	-26.325753	1.607961	0.000000	-0.177784	0.000000	-1.391928	0.000000	0.000000	0.000000	0.000000	2.379501	0.000000	-4.026987	0.000000	0.000000	0.000000
1.798500	-5.228437	619.449172	-26.377869	1.608134	0.000000	-0.177768	0.000000	-1.377524	0.000000	0.000000	0.000000	0.000000	2.392176	0.000000	-4.057660	0.000000	0.000000	0.000000
1.799000	-5.030188	619.718940	-26.430466	1.608306	0.000000	-0.177752	0.000000	-1.362984	0.000000	0.000000	0.000000	0.000000	2.404930	0.000000	-4.088501	0.000000	0.000000	0.000000
1.799500	-4.831203	619.995900	-26.483529	1.608478	0.000000	-0.177736	0.000000	-1.348309	0.000000	0.000000	0.000000	0.000000	2.417761	0.000000	-4.119511	0.000000	0.000000	0.000000
1.800000	-4.631459	620.280050	-26.537045	1.608650	0.000000	-0.177720	0.000000	-1.333498	0.000000	0.000000	0.000000	0.000000	2.430671	0.000000	-4.150690	0.000000	0.000000	0.000000
1.800500	-4.430929	620.571386	-26.591001	1.608821	0.000000	-0.177704	0.000000	-1.318549	0.000000	0.000000	0.000000	0.000000	2.443658	0.000000	-4.182038	0.000000	0.000000	0.000000
1.801000	-4.229588	620.869911	-26.645384	1.608992	0.000000	-0.177688	0.000000	-1.303459	0.000000	0.000000	0.000000	0.000000	2.456725	0.000000	-4.213556	0.000000	0.000000	0.000000
1.801500	-4.027413	621.175630	-26.700184	1.609163	0.000000	-0.177672	0.000000	-1.288227	0.000000	0.000000	0.000000	0.000000	2.469869	0.000000	-4.245244	0.000000	0.000000	0.000000
1.802000	-3.824377	621.488548	-26.755389	1.609333	0.000000	-0.177657	0.000000	-1.272849	0.000000	0.000000	0.000000	0.000000	2.483093	0.000000	-4.277103	0.000000	0.000000	0.000000
1.802500	-3.620456	621.808672	-26.810989	1.609503	0.000000	-0.177641	0.000000	-1.257323	0.000000	0.000000	0.000000	0.000000	2.496396	0.000000	-4.309133	0.000000	0.000000	0.000000
1.803000	-3.415624	622.136010	-26.866974	1.609673	0.000000	-0.177625	0.000000	-1.241646	0.000000	0.000000	0.000000	0.000000	2.509779	0.000000	-4.341335	0.000000	0.000000	0.000000
1.803500	-3.209858	622.470571	-26.923336	1.609842	0.000000	-0.177610	0.000000	-1.225813	0.000000	0.000000	0.000000	0.000000	2.523241	0.000000	-4.373709	0.000000	0.000000	0.000000
1.804000	-3.003133	622.812372	-26.980064	1.610012	0.000000	-0.177594	0.000000	-1.209823	0.000000	0.000000	0.000000	0.000000	2.536783	0.000000	-4.406256	0.000000	0.000000	0.000000
1.804500	-2.795428	623.161431	-27.037152	1.610180	0.000000	-0.177579	0.000000	-1.193671	0.000000	0.000000	0.000000	0.000000	2.550405	0.000000	-4.438976	0.000000	0.000000	0.000000
1.805000	-2.586720	623.517770	-27.094592	1.610349	0.000000	-0.177563	0.000000	-1.177355	0.000000	0.000000	0.000000	0.000000	2.564108	0.000000	-4.471870	0.000000	0.000000	0.000000
1.805500	-2.376985	623.881416	-27.152374	1.610517	0.000000	-0.177548	0.000000	-1.160873	0.000000	0.000000	0.000000	0.000000	2.577891	0.000000	-4.504937	0.000000	0.000000	0.000000
1.806000	-2.166199	624.252393	-27.210490	1.610685	0.000000	-0.177533	0.000000	-1.144220	0.000000	0.000000	0.000000	0.000000	2.591755	0.000000	-4.538179	0.000000	0.000000	0.000000
1.806500	-1.954338	624.630729	-27.268930	1.610852	0.000000	-0.177518	0.000000	-1.127393	0.000000	0.000000	0.000000	0.000000	2.605700	0.000000	-4.571596	0.000000	0.000000	0.000000
1.807000	-1.741374	625.016453	-27.327686	1.611019	0.000000	-0.177503	0.000000	-1.110389	0.000000	0.000000	0.000000	0.000000	2.619726	0.000000	-4.605188	0.000000	0.000000	0.000000
1.807500	-1.527283	625.409597	-27.386749	1.611185	0.000000	-0.177488	0.000000	-1.093203	0.000000	0.000000	0.000000	0.000000	2.633834	0.000000	-4.638956	0.000000	0.000000	0.000000
1.808000	-1.312043	625.810194	-27.446112	1.611351	0.000000	-0.177473	0.000000	-1.075835	0.000000	0.000000	0.000000	0.000000	2.648024	0.000000	-4.672900	0.000000	0.000000	0.000000
1.808500	-1.095633	626.218280	-27.505770	1.611517	0.000000	-0.177458	0.000000	-1.058282	0.000000	0.000000	0.000000	0.000000	2.662295	0.000000	-4.707021	0.000000	0.000000	0.000000
1.809000	-0.878033	626.633894	-27.565717	1.611681	0.000000	-0.177443	0.000000	-1.040545	0.000000	0.000000	0.000000	0.000000	2.676649	0.000000	-4.741319	0.000000	0.000000	0.000000
1.809500	-0.659226	627.057074	-27.625948	1.611846	0.000000	-0.177428	0.000000	-1.022624	0.000000	0.000000	0.000000	0.000000	2.691085	0.000000	-4.775795	0.000000	0.000000	0.000000
1.810000	-0.439196	627.487858	-27.686457	1.612009	0.000000	-0.177414	0.000000	-1.004516	0.000000	0.000000	0.000000	0.000000	2.705604	0.000000	-4.810449	0.000000	0.000000	0.000000
1.810500	-0.217924	627.926281	-27.747240	1.612172	0.000000	-0.177399	0.000000	-0.986223	0.000000	0.000000	0.000000	0.000000	2.720206	0.000000	-4.845281	0.000000	0.000000	0.000000
1.811000	0.004603	628.372378	-27.808291	1.612335	0.000000	-0.177385	0.000000	-0.967745	0.000000	0.000000	0.000000	0.000000	2.734891	0.000000	-4.880293	0.000000	0.000000	0.000000
1.811500	0.228402	628.826179	-27.869607	1.612496	0.000000	-0.177370	0.000000	-0.949084	0.000000	0.000000	0.000000	0.000000	2.749659	0.000000	-4.915484	0.000000	0.000000	0.000000
1.812000	0.453487	629.287713	-27.931185	1.612658	0.000000	-0.177356	0.000000	-0.930243	0.000000	0.000000	0.000000	0.000000	2.764511	0.000000	-4.950855	0.000000	0.000000	0.000000
1.812500	0.679873	629.757009	-27.993021	1.612818	0.000000	-0.177342	0.000000	-0.911224	0.000000	0.000000	0.000000	0.000000	2.779447	0.000000	-4.986406	0.000000	0.000000	0.000000
1.813000	0.907572	630.234091	-28.055112	1.612978	0.000000	-0.177328	0.000000	-0.892030	0.000000	0.000000	0.000000	0.000000	2.794467	0.000000	-5.022138	0.000000	0.000000	0.000000
1.813500	1.136595	630.718984	-28.117459	1.613137	0.000000	-0.177314	0.000000	-0.872665	0.000000	0.000000	0.000000	0.000000	2.809572	0.000000	-5.058052	0.000000	0.000000	0.000000
1.814000	1.366951	631.211707	-28.180058	1.613296	0.000000	-0.177300	0.000000	-0.853135	0.000000	0.000000	0.000000	0.000000	2.824760	0.000000	-5.094147	0.000000	0.000000	0.000000
1.814500	1.598650	631.712280	-28.242909	1.613454	0.000000	-0.177286	0.000000	-0.833445	0.000000	0.000000	0.000000	0.000000	2.840034	0.000000	-5.130425	0.000000	0.000000	0.000000
1.815000	1.831697	632.220722	-28.306012	1.613611	0.000000	-0.177272	0.000000	-0.813602	0.000000	0.000000	0.000000	0.000000	2.855393	0.000000	-5.166885	0.000000	0.000000	0.000000
1.815500	2.066101	632.737058	-28.369364	1.613768	0.000000	-0.177258	0.000000	-0.793611	0.000000	0.000000	0.000000	0.000000	2.870837	0.000000	-5.203528	0.000000	0.000000	0.000000
1.816000	2.301867	633.261313	-28.432966	1.613924	0.000000	-0.177245	0.000000	-0.773481	0.000000	0.000000	0.000000	0.000000	2.886366	0.000000	-5.240355	0.000000	0.000000	0.000000
1.816500	2.538999	633.793514	-28.496818	1.614080	0.000000	-0.177231	0.000000	-0.753216	0.000000	0.000000	0.000000	0.000000	2.901981	0.000000	-5.277366	0.000000	0.000000	0.000000
1.817000	2.777503	634.333692	-28.560918	1.614235	0.000000	-0.177218	0.000000	-0.732824	0.000000	0.000000	0.000000	0.000000	2.917682	0.000000	-5.314562	0.000000	0.000000	0.000000
1.817500	3.017384	634.881874	-28.625268	1.614389	0.000000	-0.177204	0.000000	-0.712313	0.000000	0.000000	0.000000	0.000000	2.933469	0.000000	-5.351942	0.000000	0.000000	0.000000
1.818000	3.258648	635.438090	-28.689868	1.614543	0.000000	-0.177191	0.000000	-0.691690	0.000000	0.000000	0.000000	0.000000	2.949343	0.000000	-5.389508	0.000000	0.000000	0.000000
1.818500	3.501298	636.002366	-28.754715	1.614697	0.000000	-0.177178	0.000000	-0.670961	0.000000	0.000000	0.000000	0.000000	2.965303	0.000000	-5.427260	0.000000	0.000000	0.000000
1.819000	3.745342	636.574730	-28.819811	1.614850	0.000000	-0.177164	0.000000	-0.650134	0.000000	0.000000	0.000000	0.000000	2.981350	0.000000	-5.465198	0.000000	0.000000	0.000000
1.819500	3.990783	637.155209	-28.885154	1.615003	0.000000	-0.177151	0.000000	-0.629215	0.000000	0.000000	0.000000	0.000000	2.997484	0.000000	-5.503323	0.000000	0.000000	0.000000
1.820000	4.237625	637.743828	-28.950744	1.615155	0.000000	-0.177138	0.000000	-0.608210	0.000000	0.000000	0.000000	0.000000	3.013706	0.000000	-5.541636	0.000000	0.000000	0.000000
1.820500	4.485871	638.340612	-29.016580	1.615307	0.000000	-0.177125	0.000000	-0.587125	0.000000	0.000000	0.000000	0.000000	3.030015	0.000000	-5.580136	0.000000	0.000000	0.000000
1.821000	4.735522	638.945585	-29.082663	1.615458	0.000000	-0.177112	0.000000	-0.565966	0.000000	0.000000	0.000000	0.000000	3.046412	0.000000	-5.618824	0.000000	0.000000	0.000000
1.821500	4.986578	639.558774	-29.148995	1.615609	0.000000	-0.177099	0.000000	-0.544741	0.000000	0.000000	0.000000	0.000000	3.062897	0.000000	-5.657701	0.000000	0.000000	0.000000
1.822000	5.239041	640.180204	-29.215576	1.615760	0.000000	-0.177087	0.000000	-0.523454	0.000000	0.000000	0.000000	0.000000	3.079470	0.000000	-5.696767	0.000000	0.000000	0.000000
1.822500	5.492909	640.809903	-29.282408	1.615910	0.000000	-0.177074	0.000000	-0.502114	0.000000	0.000000	0.000000	0.000000	3.096131	0.000000	-5.736022	0.000000	0.000000	0.000000
1.823000	5.748181	641.447902	-29.349491	1.616059	0.000000	-0.177061	0.000000	-0.480726	0.000000	0.000000	0.000000	0.000000	3.112882	0.000000	-5.775468	0.000000	0.000000	0.000000
1.823500	6.004857	642.094232	-29.416827	1.616209	0.000000	-0.177049	0.000000	-0.459295	0.000000	0.000000	0.000000	0.000000	3.129721	0.000000	-5.815104	0.000000	0.000000	0.000000
1.824000	6.262933	642.748929	-29.484416	1.616358	0.000000	-0.177036	0.000000	-0.437827	0.000000	0.000000	0.000000	0.000000	3.146650	0.000000	-5.854930	0.000000	0.000000	0.000000
1.824500	6.522407	643.412026	-29.552257	1.616507	0.000000	-0.177024	0.000000	-0.416323	0.000000	0.000000	0.000000	0.000000	3.163668	0.000000	-5.894949	0.000000	0.000000	0.000000
